<svg width="52" height="28" viewBox="0 0 52 28" fill="none" xmlns="http://www.w3.org/2000/svg">
<path d="M21 7V21L7 7V21" fill="#231F20"/>
<path fill-rule="evenodd" clip-rule="evenodd" d="M14 4C8.47715 4 4 8.47715 4 14C4 19.5228 8.47715 24 14 24C19.5228 24 24 19.5228 24 14C24 8.47715 19.5228 4 14 4ZM0 14C0 6.26801 6.26801 0 14 0C21.732 0 28 6.26801 28 14C28 21.732 21.732 28 14 28C6.26801 28 0 21.732 0 14Z" fill="black"/>
<path fill-rule="evenodd" clip-rule="evenodd" d="M38 4C32.4772 4 28 8.47715 28 14C28 19.5228 32.4772 24 38 24C43.5228 24 48 19.5228 48 14C48 8.47715 43.5228 4 38 4ZM24 14C24 6.26801 30.268 0 38 0C45.732 0 52 6.26801 52 14C52 21.732 45.732 28 38 28C30.268 28 24 21.732 24 14Z" fill="black"/>
<path d="M45 7V21L31 7V21" fill="#231F20"/>
</svg>
