<svg width="53" height="28" viewBox="0 0 53 28" fill="none" xmlns="http://www.w3.org/2000/svg">
<path d="M21.916 7V21L7.91602 7V21" fill="black"/>
<path fill-rule="evenodd" clip-rule="evenodd" d="M14.916 4C9.39317 4 4.91602 8.47715 4.91602 14C4.91602 19.5228 9.39317 24 14.916 24C20.4389 24 24.916 19.5228 24.916 14C24.916 8.47715 20.4389 4 14.916 4ZM0.916016 14C0.916016 6.26801 7.18403 0 14.916 0C22.648 0 28.916 6.26801 28.916 14C28.916 21.732 22.648 28 14.916 28C7.18403 28 0.916016 21.732 0.916016 14Z" fill="black"/>
<path fill-rule="evenodd" clip-rule="evenodd" d="M38.916 4C33.3932 4 28.916 8.47715 28.916 14C28.916 19.5228 33.3932 24 38.916 24C44.4389 24 48.916 19.5228 48.916 14C48.916 8.47715 44.4389 4 38.916 4ZM24.916 14C24.916 6.26801 31.184 0 38.916 0C46.648 0 52.916 6.26801 52.916 14C52.916 21.732 46.648 28 38.916 28C31.184 28 24.916 21.732 24.916 14Z" fill="black"/>
<path d="M45.916 7V21L31.916 7V21" fill="black"/>
</svg>
