<svg width="57" height="31" viewBox="0 0 57 31" fill="none" xmlns="http://www.w3.org/2000/svg">
<path d="M23.1179 7.5376V22.6136L8.04102 7.5376V22.6136" fill="#5DCB5D"/>
<path fill-rule="evenodd" clip-rule="evenodd" d="M15.5789 4.30742C9.63119 4.30742 4.80964 9.12866 4.80964 15.076C4.80964 21.0233 9.63119 25.8445 15.5789 25.8445C21.5266 25.8445 26.3481 21.0233 26.3481 15.076C26.3481 9.12866 21.5266 4.30742 15.5789 4.30742ZM0.501953 15.076C0.501953 6.74974 7.25212 0 15.5789 0C23.9056 0 30.6558 6.74974 30.6558 15.076C30.6558 23.4022 23.9056 30.1519 15.5789 30.1519C7.25212 30.1519 0.501953 23.4022 0.501953 15.076Z" fill="#5DCB5D"/>
<path fill-rule="evenodd" clip-rule="evenodd" d="M41.4226 4.30742C35.4749 4.30742 30.6534 9.12866 30.6534 15.076C30.6534 21.0233 35.4749 25.8445 41.4226 25.8445C47.3703 25.8445 52.1918 21.0233 52.1918 15.076C52.1918 9.12866 47.3703 4.30742 41.4226 4.30742ZM26.3457 15.076C26.3457 6.74974 33.0959 0 41.4226 0C49.7494 0 56.4995 6.74974 56.4995 15.076C56.4995 23.4022 49.7494 30.1519 41.4226 30.1519C33.0959 30.1519 26.3457 23.4022 26.3457 15.076Z" fill="#5DCB5D"/>
<path d="M48.9617 7.5376V22.6136L33.8848 7.5376V22.6136" fill="#5DCB5D"/>
</svg>
